<?xml version="1.0" standalone="no"?>
<!DOCTYPE svg PUBLIC "-//W3C//DTD SVG 20010904//EN"
 "http://www.w3.org/TR/2001/REC-SVG-20010904/DTD/svg10.dtd">
<svg version="1.0" xmlns="http://www.w3.org/2000/svg"
 width="1891.000000pt" height="454.000000pt" viewBox="0 0 1891.000000 454.000000"
 preserveAspectRatio="xMidYMid meet">

<g transform="translate(0.000000,454.000000) scale(0.100000,-0.100000)"
fill="#000000" stroke="none">
<path d="M4024 4529 c-458 -48 -936 -367 -1193 -794 l-42 -70 543 -3 543 -2
83 90 c219 236 499 396 781 445 73 13 749 15 5243 15 4659 0 5166 -2 5236 -16
259 -53 449 -213 534 -449 l31 -85 545 0 545 0 -6 98 c-14 231 -125 453 -295
588 -72 57 -236 137 -326 159 -37 9 -107 21 -155 26 -110 11 -11956 9 -12067
-2z"/>
<path d="M713 3262 l188 -188 -223 -597 -222 -597 -221 -187 -220 -188 2833
-3 c3105 -2 2891 -6 3044 57 195 82 383 254 476 437 31 62 343 900 358 964 53
220 -41 409 -235 470 -63 20 -89 20 -3014 20 l-2952 0 188 -188z m4804 -212
c42 -25 61 -84 45 -138 -6 -20 -82 -228 -169 -461 -146 -393 -161 -428 -203
-474 -25 -28 -66 -60 -95 -73 l-50 -24 -1717 0 c-945 0 -1718 2 -1718 5 0 3
97 265 215 582 118 318 217 584 220 591 3 9 357 12 1722 12 1685 0 1719 0
1750 -20z"/>
<path d="M7116 3442 c-4 -7 -674 -1799 -712 -1905 l-13 -37 586 2 585 3 215
575 c118 316 218 579 222 583 5 5 701 -255 1548 -577 l1539 -586 589 0 590 0
360 965 c198 531 361 970 363 975 2 6 -211 10 -581 10 l-586 0 -21 -57 c-12
-32 -110 -294 -217 -583 -108 -289 -197 -527 -199 -529 -2 -2 -696 260 -1543
583 l-1540 586 -590 0 c-324 0 -592 -4 -595 -8z"/>
<path d="M13594 3430 c-233 -61 -468 -249 -573 -458 -34 -66 -360 -948 -372
-1004 -17 -76 -7 -203 20 -263 26 -59 90 -129 146 -157 95 -50 26 -48 1871
-48 l1731 0 332 -205 332 -205 239 0 239 0 -154 203 -154 202 327 5 c322 6
328 6 407 33 97 32 213 97 301 169 72 58 176 181 218 257 42 78 367 959 384
1043 38 181 -38 342 -197 417 l-56 26 -2485 2 c-2394 2 -2488 1 -2556 -17z
m4092 -391 c56 -56 53 -68 -131 -561 -187 -502 -195 -516 -296 -567 l-62 -31
-1654 0 -1653 0 -37 34 c-61 56 -59 69 125 557 88 234 166 438 175 455 23 43
86 100 137 123 45 21 54 21 1707 18 l1663 -2 26 -26z"/>
<path d="M4902 913 c-95 -252 -172 -461 -172 -466 0 -4 75 -6 166 -5 l166 3
88 233 c49 129 91 236 93 238 2 3 83 -49 178 -114 96 -65 179 -121 186 -125 7
-4 134 47 290 117 153 69 279 121 281 117 1 -4 -34 -104 -79 -222 -45 -118
-84 -222 -86 -232 -5 -16 6 -17 162 -15 l168 3 173 459 c96 253 173 460 172
462 -2 1 -217 -94 -478 -212 -261 -118 -481 -214 -488 -214 -7 0 -154 97 -328
215 -173 118 -316 215 -317 215 -1 0 -80 -206 -175 -457z"/>
<path d="M7115 1310 c-166 -25 -285 -94 -337 -195 -35 -67 -179 -458 -184
-500 -7 -47 22 -98 73 -127 76 -45 144 -50 703 -45 464 3 532 6 584 21 126 37
204 92 248 173 44 81 188 478 188 517 0 81 -52 125 -179 152 -52 11 -169 13
-556 13 -269 -1 -512 -5 -540 -9z m906 -190 c10 -6 19 -18 19 -26 0 -30 -152
-419 -171 -439 -19 -19 -35 -20 -457 -23 -362 -2 -441 0 -456 11 -19 14 -16
23 64 237 77 206 86 223 114 236 39 17 855 20 887 4z"/>
<path d="M8608 1225 l-36 -95 319 0 c176 0 319 -2 319 -4 0 -2 -58 -157 -129
-345 l-129 -341 168 0 168 0 26 67 c14 38 72 192 129 343 l104 275 279 3 279
2 119 95 119 95 -850 0 -850 0 -35 -95z"/>
<path d="M10695 1309 c-136 -20 -257 -82 -310 -159 -34 -49 -194 -470 -202
-531 -11 -87 57 -147 187 -168 101 -17 1016 -14 1110 3 139 25 242 79 293 153
15 21 66 140 113 263 70 182 87 236 88 283 1 55 -1 60 -36 92 -74 68 -83 69
-663 71 -286 1 -547 -2 -580 -7z m916 -189 c10 -6 19 -17 19 -24 0 -8 -20 -67
-45 -133 -25 -65 -62 -160 -81 -211 -28 -73 -42 -95 -64 -107 -24 -13 -98 -15
-450 -15 -415 0 -460 3 -460 33 0 11 40 121 126 345 31 81 41 96 68 108 39 17
855 21 887 4z"/>
<path d="M12202 1243 c-164 -431 -284 -754 -281 -757 2 -2 64 -22 136 -45 73
-23 139 -44 146 -47 9 -3 53 100 153 366 l139 370 446 0 c499 0 487 2 475 -65
-4 -20 -18 -48 -31 -61 l-24 -24 -456 0 -456 0 7 -22 c3 -13 24 -58 45 -100
l39 -78 229 0 230 0 104 -167 104 -168 191 -3 c106 -1 192 0 192 4 0 3 -45 79
-100 167 -55 89 -100 166 -100 171 -1 5 30 17 68 27 151 38 230 102 281 224
68 163 20 245 -161 275 -38 6 -313 10 -705 10 l-641 0 -30 -77z"/>
<path d="M2070 1158 c-135 -543 89 -978 576 -1120 l79 -23 6075 -3 c6739 -2
6143 -8 6360 64 441 147 840 512 1007 921 27 65 93 272 93 291 0 1 -230 1
-511 0 l-510 -3 -39 -94 c-168 -408 -557 -735 -995 -837 -78 -18 -238 -19
-5280 -19 -4362 0 -5209 2 -5255 14 -157 39 -277 108 -380 218 -112 120 -169
257 -186 444 -6 68 7 225 22 264 5 13 -59 15 -508 15 l-515 0 -33 -132z"/>
</g>
</svg>
